ISO-10303-21;
HEADER;
/* Generated by software containing ST-Developer
 * from STEP Tools, Inc. (www.steptools.com) 
 */

FILE_DESCRIPTION(
/* description */ (''),
/* implementation_level */ '2;1');

FILE_NAME(
/* name */ 'top.step',
/* time_stamp */ '2026-09-05T20:59:18-07:00',
/* author */ (''),
/* organization */ (''),
/* preprocessor_version */ 'ST-DEVELOPER v20.1',
/* originating_system */ 'Autodesk Translation Framework v15.8.0.0',
/* authorisation */ '');

FILE_SCHEMA (('AUTOMOTIVE_DESIGN { 1 0 10303 214 3 1 1 }'));
ENDSEC;

DATA;
#10=MECHANICAL_DESIGN_GEOMETRIC_PRESENTATION_REPRESENTATION('',(#13),#1175);
#11=SHAPE_REPRESENTATION_RELATIONSHIP('SRR','None',#1182,#12);
#12=ADVANCED_BREP_SHAPE_REPRESENTATION('',(#14),#1174);
#13=STYLED_ITEM('',(#1192),#14);
#14=MANIFOLD_SOLID_BREP('Body81',#663);
#15=FACE_BOUND('',#224,.T.);
#16=FACE_BOUND('',#252,.T.);
#17=FACE_BOUND('',#253,.T.);
#18=FACE_BOUND('',#254,.T.);
#19=FACE_BOUND('',#255,.T.);
#20=FACE_BOUND('',#256,.T.);
#21=FACE_BOUND('',#257,.T.);
#22=FACE_BOUND('',#258,.T.);
#23=FACE_BOUND('',#259,.T.);
#24=FACE_BOUND('',#260,.T.);
#25=PLANE('',#705);
#26=PLANE('',#706);
#27=PLANE('',#707);
#28=PLANE('',#708);
#29=PLANE('',#710);
#30=PLANE('',#712);
#31=PLANE('',#714);
#32=PLANE('',#716);
#33=PLANE('',#718);
#34=PLANE('',#720);
#35=PLANE('',#722);
#36=PLANE('',#740);
#37=PLANE('',#741);
#38=PLANE('',#742);
#39=PLANE('',#743);
#40=PLANE('',#744);
#41=PLANE('',#745);
#42=PLANE('',#746);
#43=PLANE('',#747);
#44=PLANE('',#748);
#45=PLANE('',#749);
#46=PLANE('',#750);
#47=LINE('',#975,#99);
#48=LINE('',#976,#100);
#49=LINE('',#998,#101);
#50=LINE('',#999,#102);
#51=LINE('',#1021,#103);
#52=LINE('',#1022,#104);
#53=LINE('',#1024,#105);
#54=LINE('',#1025,#106);
#55=LINE('',#1047,#107);
#56=LINE('',#1048,#108);
#57=LINE('',#1050,#109);
#58=LINE('',#1051,#110);
#59=LINE('',#1053,#111);
#60=LINE('',#1054,#112);
#61=LINE('',#1056,#113);
#62=LINE('',#1057,#114);
#63=LINE('',#1059,#115);
#64=LINE('',#1061,#116);
#65=LINE('',#1065,#117);
#66=LINE('',#1067,#118);
#67=LINE('',#1069,#119);
#68=LINE('',#1071,#120);
#69=LINE('',#1073,#121);
#70=LINE('',#1075,#122);
#71=LINE('',#1077,#123);
#72=LINE('',#1078,#124);
#73=LINE('',#1105,#125);
#74=LINE('',#1109,#126);
#75=LINE('',#1113,#127);
#76=LINE('',#1117,#128);
#77=LINE('',#1121,#129);
#78=LINE('',#1125,#130);
#79=LINE('',#1129,#131);
#80=LINE('',#1133,#132);
#81=LINE('',#1138,#133);
#82=LINE('',#1139,#134);
#83=LINE('',#1140,#135);
#84=LINE('',#1143,#136);
#85=LINE('',#1144,#137);
#86=LINE('',#1147,#138);
#87=LINE('',#1148,#139);
#88=LINE('',#1151,#140);
#89=LINE('',#1152,#141);
#90=LINE('',#1155,#142);
#91=LINE('',#1156,#143);
#92=LINE('',#1159,#144);
#93=LINE('',#1160,#145);
#94=LINE('',#1163,#146);
#95=LINE('',#1164,#147);
#96=LINE('',#1166,#148);
#97=LINE('',#1168,#149);
#98=LINE('',#1170,#150);
#99=VECTOR('',#765,10.);
#100=VECTOR('',#766,10.);
#101=VECTOR('',#779,10.);
#102=VECTOR('',#780,10.);
#103=VECTOR('',#793,10.);
#104=VECTOR('',#794,10.);
#105=VECTOR('',#797,10.);
#106=VECTOR('',#798,10.);
#107=VECTOR('',#811,10.);
#108=VECTOR('',#812,10.);
#109=VECTOR('',#815,10.);
#110=VECTOR('',#816,10.);
#111=VECTOR('',#819,10.);
#112=VECTOR('',#820,10.);
#113=VECTOR('',#823,10.);
#114=VECTOR('',#824,10.);
#115=VECTOR('',#827,10.);
#116=VECTOR('',#830,10.);
#117=VECTOR('',#833,10.);
#118=VECTOR('',#834,10.);
#119=VECTOR('',#835,10.);
#120=VECTOR('',#836,10.);
#121=VECTOR('',#837,10.);
#122=VECTOR('',#838,10.);
#123=VECTOR('',#839,10.);
#124=VECTOR('',#840,10.);
#125=VECTOR('',#875,0.899999999999999);
#126=VECTOR('',#880,0.899999999999999);
#127=VECTOR('',#885,0.899999999999999);
#128=VECTOR('',#890,0.899999999999999);
#129=VECTOR('',#895,0.899999999999999);
#130=VECTOR('',#900,0.899999999999999);
#131=VECTOR('',#905,0.9);
#132=VECTOR('',#910,0.899999999999999);
#133=VECTOR('',#915,10.);
#134=VECTOR('',#916,10.);
#135=VECTOR('',#917,10.);
#136=VECTOR('',#920,10.);
#137=VECTOR('',#921,10.);
#138=VECTOR('',#924,10.);
#139=VECTOR('',#925,10.);
#140=VECTOR('',#928,10.);
#141=VECTOR('',#929,10.);
#142=VECTOR('',#932,10.);
#143=VECTOR('',#933,10.);
#144=VECTOR('',#936,10.);
#145=VECTOR('',#937,10.);
#146=VECTOR('',#940,10.);
#147=VECTOR('',#941,10.);
#148=VECTOR('',#944,10.);
#149=VECTOR('',#947,10.);
#150=VECTOR('',#950,10.);
#151=CYLINDRICAL_SURFACE('',#681,2.4);
#152=CYLINDRICAL_SURFACE('',#687,2.4);
#153=CYLINDRICAL_SURFACE('',#693,2.4);
#154=CYLINDRICAL_SURFACE('',#695,1.2);
#155=CYLINDRICAL_SURFACE('',#700,2.4);
#156=CYLINDRICAL_SURFACE('',#702,1.2);
#157=CYLINDRICAL_SURFACE('',#703,1.2);
#158=CYLINDRICAL_SURFACE('',#704,1.2);
#159=CYLINDRICAL_SURFACE('',#724,0.899999999999999);
#160=CYLINDRICAL_SURFACE('',#726,0.899999999999999);
#161=CYLINDRICAL_SURFACE('',#728,0.899999999999999);
#162=CYLINDRICAL_SURFACE('',#730,0.899999999999999);
#163=CYLINDRICAL_SURFACE('',#732,0.899999999999999);
#164=CYLINDRICAL_SURFACE('',#734,0.899999999999999);
#165=CYLINDRICAL_SURFACE('',#736,0.9);
#166=CYLINDRICAL_SURFACE('',#738,0.899999999999999);
#167=FACE_OUTER_BOUND('',#209,.T.);
#168=FACE_OUTER_BOUND('',#210,.T.);
#169=FACE_OUTER_BOUND('',#211,.T.);
#170=FACE_OUTER_BOUND('',#212,.T.);
#171=FACE_OUTER_BOUND('',#213,.T.);
#172=FACE_OUTER_BOUND('',#214,.T.);
#173=FACE_OUTER_BOUND('',#215,.T.);
#174=FACE_OUTER_BOUND('',#216,.T.);
#175=FACE_OUTER_BOUND('',#217,.T.);
#176=FACE_OUTER_BOUND('',#218,.T.);
#177=FACE_OUTER_BOUND('',#219,.T.);
#178=FACE_OUTER_BOUND('',#220,.T.);
#179=FACE_OUTER_BOUND('',#221,.T.);
#180=FACE_OUTER_BOUND('',#222,.T.);
#181=FACE_OUTER_BOUND('',#223,.T.);
#182=FACE_OUTER_BOUND('',#225,.T.);
#183=FACE_OUTER_BOUND('',#226,.T.);
#184=FACE_OUTER_BOUND('',#227,.T.);
#185=FACE_OUTER_BOUND('',#228,.T.);
#186=FACE_OUTER_BOUND('',#229,.T.);
#187=FACE_OUTER_BOUND('',#230,.T.);
#188=FACE_OUTER_BOUND('',#231,.T.);
#189=FACE_OUTER_BOUND('',#232,.T.);
#190=FACE_OUTER_BOUND('',#233,.T.);
#191=FACE_OUTER_BOUND('',#234,.T.);
#192=FACE_OUTER_BOUND('',#235,.T.);
#193=FACE_OUTER_BOUND('',#236,.T.);
#194=FACE_OUTER_BOUND('',#237,.T.);
#195=FACE_OUTER_BOUND('',#238,.T.);
#196=FACE_OUTER_BOUND('',#239,.T.);
#197=FACE_OUTER_BOUND('',#240,.T.);
#198=FACE_OUTER_BOUND('',#241,.T.);
#199=FACE_OUTER_BOUND('',#242,.T.);
#200=FACE_OUTER_BOUND('',#243,.T.);
#201=FACE_OUTER_BOUND('',#244,.T.);
#202=FACE_OUTER_BOUND('',#245,.T.);
#203=FACE_OUTER_BOUND('',#246,.T.);
#204=FACE_OUTER_BOUND('',#247,.T.);
#205=FACE_OUTER_BOUND('',#248,.T.);
#206=FACE_OUTER_BOUND('',#249,.T.);
#207=FACE_OUTER_BOUND('',#250,.T.);
#208=FACE_OUTER_BOUND('',#251,.T.);
#209=EDGE_LOOP('',(#441,#442,#443,#444));
#210=EDGE_LOOP('',(#445,#446,#447,#448));
#211=EDGE_LOOP('',(#449,#450,#451,#452));
#212=EDGE_LOOP('',(#453,#454,#455,#456));
#213=EDGE_LOOP('',(#457,#458,#459,#460));
#214=EDGE_LOOP('',(#461,#462,#463,#464));
#215=EDGE_LOOP('',(#465,#466,#467,#468));
#216=EDGE_LOOP('',(#469,#470,#471,#472));
#217=EDGE_LOOP('',(#473,#474,#475,#476));
#218=EDGE_LOOP('',(#477,#478,#479,#480));
#219=EDGE_LOOP('',(#481,#482,#483,#484));
#220=EDGE_LOOP('',(#485,#486,#487,#488));
#221=EDGE_LOOP('',(#489,#490,#491,#492));
#222=EDGE_LOOP('',(#493,#494,#495,#496));
#223=EDGE_LOOP('',(#497,#498,#499,#500,#501,#502,#503,#504));
#224=EDGE_LOOP('',(#505,#506,#507,#508,#509,#510,#511,#512));
#225=EDGE_LOOP('',(#513));
#226=EDGE_LOOP('',(#514));
#227=EDGE_LOOP('',(#515));
#228=EDGE_LOOP('',(#516));
#229=EDGE_LOOP('',(#517));
#230=EDGE_LOOP('',(#518));
#231=EDGE_LOOP('',(#519));
#232=EDGE_LOOP('',(#520));
#233=EDGE_LOOP('',(#521,#522,#523,#524));
#234=EDGE_LOOP('',(#525,#526,#527,#528));
#235=EDGE_LOOP('',(#529,#530,#531,#532));
#236=EDGE_LOOP('',(#533,#534,#535,#536));
#237=EDGE_LOOP('',(#537,#538,#539,#540));
#238=EDGE_LOOP('',(#541,#542,#543,#544));
#239=EDGE_LOOP('',(#545,#546,#547,#548));
#240=EDGE_LOOP('',(#549,#550,#551,#552));
#241=EDGE_LOOP('',(#553,#554,#555,#556));
#242=EDGE_LOOP('',(#557,#558,#559,#560));
#243=EDGE_LOOP('',(#561,#562,#563,#564));
#244=EDGE_LOOP('',(#565,#566,#567,#568));
#245=EDGE_LOOP('',(#569,#570,#571,#572));
#246=EDGE_LOOP('',(#573,#574,#575,#576));
#247=EDGE_LOOP('',(#577,#578,#579,#580));
#248=EDGE_LOOP('',(#581,#582,#583,#584));
#249=EDGE_LOOP('',(#585,#586,#587,#588));
#250=EDGE_LOOP('',(#589,#590,#591,#592));
#251=EDGE_LOOP('',(#593,#594,#595,#596,#597,#598,#599,#600));
#252=EDGE_LOOP('',(#601,#602,#603,#604,#605,#606,#607,#608));
#253=EDGE_LOOP('',(#609));
#254=EDGE_LOOP('',(#610));
#255=EDGE_LOOP('',(#611));
#256=EDGE_LOOP('',(#612));
#257=EDGE_LOOP('',(#613));
#258=EDGE_LOOP('',(#614));
#259=EDGE_LOOP('',(#615));
#260=EDGE_LOOP('',(#616));
#261=CIRCLE('',#677,1.20000000000001);
#262=CIRCLE('',#678,2.4);
#263=CIRCLE('',#679,1.2);
#264=CIRCLE('',#680,1.20000000000001);
#265=CIRCLE('',#682,2.4);
#266=CIRCLE('',#683,1.19999999999999);
#267=CIRCLE('',#684,2.4);
#268=CIRCLE('',#685,1.2);
#269=CIRCLE('',#686,1.20000000000002);
#270=CIRCLE('',#688,2.4);
#271=CIRCLE('',#689,1.2);
#272=CIRCLE('',#690,2.39999999999998);
#273=CIRCLE('',#691,1.2);
#274=CIRCLE('',#692,1.19999999999997);
#275=CIRCLE('',#694,2.4);
#276=CIRCLE('',#696,1.2);
#277=CIRCLE('',#697,2.4);
#278=CIRCLE('',#698,1.2);
#279=CIRCLE('',#699,1.2);
#280=CIRCLE('',#701,2.4);
#281=CIRCLE('',#709,0.899999999999999);
#282=CIRCLE('',#711,0.899999999999999);
#283=CIRCLE('',#713,0.899999999999999);
#284=CIRCLE('',#715,0.899999999999999);
#285=CIRCLE('',#717,0.899999999999999);
#286=CIRCLE('',#719,0.899999999999999);
#287=CIRCLE('',#721,0.899999999999999);
#288=CIRCLE('',#723,0.9);
#289=CIRCLE('',#725,0.899999999999999);
#290=CIRCLE('',#727,0.899999999999999);
#291=CIRCLE('',#729,0.899999999999999);
#292=CIRCLE('',#731,0.899999999999999);
#293=CIRCLE('',#733,0.899999999999999);
#294=CIRCLE('',#735,0.899999999999999);
#295=CIRCLE('',#737,0.9);
#296=CIRCLE('',#739,0.899999999999999);
#297=VERTEX_POINT('',#963);
#298=VERTEX_POINT('',#964);
#299=VERTEX_POINT('',#966);
#300=VERTEX_POINT('',#968);
#301=VERTEX_POINT('',#972);
#302=VERTEX_POINT('',#973);
#303=VERTEX_POINT('',#986);
#304=VERTEX_POINT('',#987);
#305=VERTEX_POINT('',#989);
#306=VERTEX_POINT('',#991);
#307=VERTEX_POINT('',#995);
#308=VERTEX_POINT('',#996);
#309=VERTEX_POINT('',#1009);
#310=VERTEX_POINT('',#1010);
#311=VERTEX_POINT('',#1012);
#312=VERTEX_POINT('',#1014);
#313=VERTEX_POINT('',#1018);
#314=VERTEX_POINT('',#1019);
#315=VERTEX_POINT('',#1035);
#316=VERTEX_POINT('',#1036);
#317=VERTEX_POINT('',#1038);
#318=VERTEX_POINT('',#1040);
#319=VERTEX_POINT('',#1044);
#320=VERTEX_POINT('',#1045);
#321=VERTEX_POINT('',#1063);
#322=VERTEX_POINT('',#1064);
#323=VERTEX_POINT('',#1066);
#324=VERTEX_POINT('',#1068);
#325=VERTEX_POINT('',#1070);
#326=VERTEX_POINT('',#1072);
#327=VERTEX_POINT('',#1074);
#328=VERTEX_POINT('',#1076);
#329=VERTEX_POINT('',#1080);
#330=VERTEX_POINT('',#1083);
#331=VERTEX_POINT('',#1086);
#332=VERTEX_POINT('',#1089);
#333=VERTEX_POINT('',#1092);
#334=VERTEX_POINT('',#1095);
#335=VERTEX_POINT('',#1098);
#336=VERTEX_POINT('',#1101);
#337=VERTEX_POINT('',#1104);
#338=VERTEX_POINT('',#1108);
#339=VERTEX_POINT('',#1112);
#340=VERTEX_POINT('',#1116);
#341=VERTEX_POINT('',#1120);
#342=VERTEX_POINT('',#1124);
#343=VERTEX_POINT('',#1128);
#344=VERTEX_POINT('',#1132);
#345=VERTEX_POINT('',#1136);
#346=VERTEX_POINT('',#1137);
#347=VERTEX_POINT('',#1142);
#348=VERTEX_POINT('',#1146);
#349=VERTEX_POINT('',#1150);
#350=VERTEX_POINT('',#1154);
#351=VERTEX_POINT('',#1158);
#352=VERTEX_POINT('',#1162);
#353=EDGE_CURVE('',#297,#298,#261,.T.);
#354=EDGE_CURVE('',#299,#297,#262,.F.);
#355=EDGE_CURVE('',#300,#299,#263,.T.);
#356=EDGE_CURVE('',#300,#298,#264,.T.);
#357=EDGE_CURVE('',#301,#302,#265,.T.);
#358=EDGE_CURVE('',#302,#299,#47,.T.);
#359=EDGE_CURVE('',#297,#301,#48,.T.);
#360=EDGE_CURVE('',#303,#304,#266,.T.);
#361=EDGE_CURVE('',#305,#303,#267,.F.);
#362=EDGE_CURVE('',#306,#305,#268,.T.);
#363=EDGE_CURVE('',#306,#304,#269,.T.);
#364=EDGE_CURVE('',#307,#308,#270,.T.);
#365=EDGE_CURVE('',#308,#305,#49,.T.);
#366=EDGE_CURVE('',#303,#307,#50,.T.);
#367=EDGE_CURVE('',#309,#310,#271,.T.);
#368=EDGE_CURVE('',#311,#309,#272,.F.);
#369=EDGE_CURVE('',#312,#311,#273,.T.);
#370=EDGE_CURVE('',#312,#310,#274,.T.);
#371=EDGE_CURVE('',#313,#314,#275,.T.);
#372=EDGE_CURVE('',#314,#311,#51,.T.);
#373=EDGE_CURVE('',#309,#313,#52,.T.);
#374=EDGE_CURVE('',#298,#312,#53,.T.);
#375=EDGE_CURVE('',#311,#297,#54,.T.);
#376=EDGE_CURVE('',#315,#316,#276,.T.);
#377=EDGE_CURVE('',#317,#315,#277,.F.);
#378=EDGE_CURVE('',#318,#317,#278,.T.);
#379=EDGE_CURVE('',#318,#316,#279,.T.);
#380=EDGE_CURVE('',#319,#320,#280,.T.);
#381=EDGE_CURVE('',#320,#317,#55,.T.);
#382=EDGE_CURVE('',#315,#319,#56,.T.);
#383=EDGE_CURVE('',#310,#318,#57,.T.);
#384=EDGE_CURVE('',#317,#309,#58,.T.);
#385=EDGE_CURVE('',#316,#306,#59,.T.);
#386=EDGE_CURVE('',#305,#315,#60,.T.);
#387=EDGE_CURVE('',#304,#300,#61,.T.);
#388=EDGE_CURVE('',#299,#303,#62,.T.);
#389=EDGE_CURVE('',#314,#301,#63,.T.);
#390=EDGE_CURVE('',#320,#313,#64,.T.);
#391=EDGE_CURVE('',#321,#322,#65,.T.);
#392=EDGE_CURVE('',#322,#323,#66,.T.);
#393=EDGE_CURVE('',#323,#324,#67,.T.);
#394=EDGE_CURVE('',#324,#325,#68,.T.);
#395=EDGE_CURVE('',#325,#326,#69,.T.);
#396=EDGE_CURVE('',#326,#327,#70,.T.);
#397=EDGE_CURVE('',#327,#328,#71,.T.);
#398=EDGE_CURVE('',#328,#321,#72,.T.);
#399=EDGE_CURVE('',#329,#329,#281,.T.);
#400=EDGE_CURVE('',#330,#330,#282,.T.);
#401=EDGE_CURVE('',#331,#331,#283,.T.);
#402=EDGE_CURVE('',#332,#332,#284,.T.);
#403=EDGE_CURVE('',#333,#333,#285,.T.);
#404=EDGE_CURVE('',#334,#334,#286,.T.);
#405=EDGE_CURVE('',#335,#335,#287,.T.);
#406=EDGE_CURVE('',#336,#336,#288,.T.);
#407=EDGE_CURVE('',#331,#337,#73,.T.);
#408=EDGE_CURVE('',#337,#337,#289,.T.);
#409=EDGE_CURVE('',#329,#338,#74,.T.);
#410=EDGE_CURVE('',#338,#338,#290,.T.);
#411=EDGE_CURVE('',#332,#339,#75,.T.);
#412=EDGE_CURVE('',#339,#339,#291,.T.);
#413=EDGE_CURVE('',#333,#340,#76,.T.);
#414=EDGE_CURVE('',#340,#340,#292,.T.);
#415=EDGE_CURVE('',#334,#341,#77,.T.);
#416=EDGE_CURVE('',#341,#341,#293,.T.);
#417=EDGE_CURVE('',#330,#342,#78,.T.);
#418=EDGE_CURVE('',#342,#342,#294,.T.);
#419=EDGE_CURVE('',#336,#343,#79,.T.);
#420=EDGE_CURVE('',#343,#343,#295,.T.);
#421=EDGE_CURVE('',#335,#344,#80,.T.);
#422=EDGE_CURVE('',#344,#344,#296,.T.);
#423=EDGE_CURVE('',#345,#346,#81,.T.);
#424=EDGE_CURVE('',#346,#321,#82,.T.);
#425=EDGE_CURVE('',#345,#328,#83,.T.);
#426=EDGE_CURVE('',#347,#345,#84,.T.);
#427=EDGE_CURVE('',#347,#327,#85,.T.);
#428=EDGE_CURVE('',#348,#347,#86,.T.);
#429=EDGE_CURVE('',#348,#326,#87,.T.);
#430=EDGE_CURVE('',#349,#348,#88,.T.);
#431=EDGE_CURVE('',#349,#325,#89,.T.);
#432=EDGE_CURVE('',#350,#349,#90,.T.);
#433=EDGE_CURVE('',#350,#324,#91,.T.);
#434=EDGE_CURVE('',#351,#350,#92,.T.);
#435=EDGE_CURVE('',#351,#323,#93,.T.);
#436=EDGE_CURVE('',#352,#351,#94,.T.);
#437=EDGE_CURVE('',#352,#322,#95,.T.);
#438=EDGE_CURVE('',#346,#352,#96,.T.);
#439=EDGE_CURVE('',#302,#307,#97,.T.);
#440=EDGE_CURVE('',#308,#319,#98,.T.);
#441=ORIENTED_EDGE('',*,*,#353,.F.);
#442=ORIENTED_EDGE('',*,*,#354,.F.);
#443=ORIENTED_EDGE('',*,*,#355,.F.);
#444=ORIENTED_EDGE('',*,*,#356,.T.);
#445=ORIENTED_EDGE('',*,*,#357,.T.);
#446=ORIENTED_EDGE('',*,*,#358,.T.);
#447=ORIENTED_EDGE('',*,*,#354,.T.);
#448=ORIENTED_EDGE('',*,*,#359,.T.);
#449=ORIENTED_EDGE('',*,*,#360,.F.);
#450=ORIENTED_EDGE('',*,*,#361,.F.);
#451=ORIENTED_EDGE('',*,*,#362,.F.);
#452=ORIENTED_EDGE('',*,*,#363,.T.);
#453=ORIENTED_EDGE('',*,*,#364,.T.);
#454=ORIENTED_EDGE('',*,*,#365,.T.);
#455=ORIENTED_EDGE('',*,*,#361,.T.);
#456=ORIENTED_EDGE('',*,*,#366,.T.);
#457=ORIENTED_EDGE('',*,*,#367,.F.);
#458=ORIENTED_EDGE('',*,*,#368,.F.);
#459=ORIENTED_EDGE('',*,*,#369,.F.);
#460=ORIENTED_EDGE('',*,*,#370,.T.);
#461=ORIENTED_EDGE('',*,*,#371,.T.);
#462=ORIENTED_EDGE('',*,*,#372,.T.);
#463=ORIENTED_EDGE('',*,*,#368,.T.);
#464=ORIENTED_EDGE('',*,*,#373,.T.);
#465=ORIENTED_EDGE('',*,*,#353,.T.);
#466=ORIENTED_EDGE('',*,*,#374,.T.);
#467=ORIENTED_EDGE('',*,*,#369,.T.);
#468=ORIENTED_EDGE('',*,*,#375,.T.);
#469=ORIENTED_EDGE('',*,*,#376,.F.);
#470=ORIENTED_EDGE('',*,*,#377,.F.);
#471=ORIENTED_EDGE('',*,*,#378,.F.);
#472=ORIENTED_EDGE('',*,*,#379,.T.);
#473=ORIENTED_EDGE('',*,*,#380,.T.);
#474=ORIENTED_EDGE('',*,*,#381,.T.);
#475=ORIENTED_EDGE('',*,*,#377,.T.);
#476=ORIENTED_EDGE('',*,*,#382,.T.);
#477=ORIENTED_EDGE('',*,*,#367,.T.);
#478=ORIENTED_EDGE('',*,*,#383,.T.);
#479=ORIENTED_EDGE('',*,*,#378,.T.);
#480=ORIENTED_EDGE('',*,*,#384,.T.);
#481=ORIENTED_EDGE('',*,*,#376,.T.);
#482=ORIENTED_EDGE('',*,*,#385,.T.);
#483=ORIENTED_EDGE('',*,*,#362,.T.);
#484=ORIENTED_EDGE('',*,*,#386,.T.);
#485=ORIENTED_EDGE('',*,*,#360,.T.);
#486=ORIENTED_EDGE('',*,*,#387,.T.);
#487=ORIENTED_EDGE('',*,*,#355,.T.);
#488=ORIENTED_EDGE('',*,*,#388,.T.);
#489=ORIENTED_EDGE('',*,*,#359,.F.);
#490=ORIENTED_EDGE('',*,*,#375,.F.);
#491=ORIENTED_EDGE('',*,*,#372,.F.);
#492=ORIENTED_EDGE('',*,*,#389,.T.);
#493=ORIENTED_EDGE('',*,*,#373,.F.);
#494=ORIENTED_EDGE('',*,*,#384,.F.);
#495=ORIENTED_EDGE('',*,*,#381,.F.);
#496=ORIENTED_EDGE('',*,*,#390,.T.);
#497=ORIENTED_EDGE('',*,*,#379,.F.);
#498=ORIENTED_EDGE('',*,*,#383,.F.);
#499=ORIENTED_EDGE('',*,*,#370,.F.);
#500=ORIENTED_EDGE('',*,*,#374,.F.);
#501=ORIENTED_EDGE('',*,*,#356,.F.);
#502=ORIENTED_EDGE('',*,*,#387,.F.);
#503=ORIENTED_EDGE('',*,*,#363,.F.);
#504=ORIENTED_EDGE('',*,*,#385,.F.);
#505=ORIENTED_EDGE('',*,*,#391,.T.);
#506=ORIENTED_EDGE('',*,*,#392,.T.);
#507=ORIENTED_EDGE('',*,*,#393,.T.);
#508=ORIENTED_EDGE('',*,*,#394,.T.);
#509=ORIENTED_EDGE('',*,*,#395,.T.);
#510=ORIENTED_EDGE('',*,*,#396,.T.);
#511=ORIENTED_EDGE('',*,*,#397,.T.);
#512=ORIENTED_EDGE('',*,*,#398,.T.);
#513=ORIENTED_EDGE('',*,*,#399,.F.);
#514=ORIENTED_EDGE('',*,*,#400,.F.);
#515=ORIENTED_EDGE('',*,*,#401,.F.);
#516=ORIENTED_EDGE('',*,*,#402,.F.);
#517=ORIENTED_EDGE('',*,*,#403,.F.);
#518=ORIENTED_EDGE('',*,*,#404,.F.);
#519=ORIENTED_EDGE('',*,*,#405,.F.);
#520=ORIENTED_EDGE('',*,*,#406,.F.);
#521=ORIENTED_EDGE('',*,*,#401,.T.);
#522=ORIENTED_EDGE('',*,*,#407,.T.);
#523=ORIENTED_EDGE('',*,*,#408,.T.);
#524=ORIENTED_EDGE('',*,*,#407,.F.);
#525=ORIENTED_EDGE('',*,*,#399,.T.);
#526=ORIENTED_EDGE('',*,*,#409,.T.);
#527=ORIENTED_EDGE('',*,*,#410,.T.);
#528=ORIENTED_EDGE('',*,*,#409,.F.);
#529=ORIENTED_EDGE('',*,*,#402,.T.);
#530=ORIENTED_EDGE('',*,*,#411,.T.);
#531=ORIENTED_EDGE('',*,*,#412,.T.);
#532=ORIENTED_EDGE('',*,*,#411,.F.);
#533=ORIENTED_EDGE('',*,*,#403,.T.);
#534=ORIENTED_EDGE('',*,*,#413,.T.);
#535=ORIENTED_EDGE('',*,*,#414,.T.);
#536=ORIENTED_EDGE('',*,*,#413,.F.);
#537=ORIENTED_EDGE('',*,*,#404,.T.);
#538=ORIENTED_EDGE('',*,*,#415,.T.);
#539=ORIENTED_EDGE('',*,*,#416,.T.);
#540=ORIENTED_EDGE('',*,*,#415,.F.);
#541=ORIENTED_EDGE('',*,*,#400,.T.);
#542=ORIENTED_EDGE('',*,*,#417,.T.);
#543=ORIENTED_EDGE('',*,*,#418,.T.);
#544=ORIENTED_EDGE('',*,*,#417,.F.);
#545=ORIENTED_EDGE('',*,*,#406,.T.);
#546=ORIENTED_EDGE('',*,*,#419,.T.);
#547=ORIENTED_EDGE('',*,*,#420,.T.);
#548=ORIENTED_EDGE('',*,*,#419,.F.);
#549=ORIENTED_EDGE('',*,*,#405,.T.);
#550=ORIENTED_EDGE('',*,*,#421,.T.);
#551=ORIENTED_EDGE('',*,*,#422,.T.);
#552=ORIENTED_EDGE('',*,*,#421,.F.);
#553=ORIENTED_EDGE('',*,*,#423,.T.);
#554=ORIENTED_EDGE('',*,*,#424,.T.);
#555=ORIENTED_EDGE('',*,*,#398,.F.);
#556=ORIENTED_EDGE('',*,*,#425,.F.);
#557=ORIENTED_EDGE('',*,*,#426,.T.);
#558=ORIENTED_EDGE('',*,*,#425,.T.);
#559=ORIENTED_EDGE('',*,*,#397,.F.);
#560=ORIENTED_EDGE('',*,*,#427,.F.);
#561=ORIENTED_EDGE('',*,*,#428,.T.);
#562=ORIENTED_EDGE('',*,*,#427,.T.);
#563=ORIENTED_EDGE('',*,*,#396,.F.);
#564=ORIENTED_EDGE('',*,*,#429,.F.);
#565=ORIENTED_EDGE('',*,*,#430,.T.);
#566=ORIENTED_EDGE('',*,*,#429,.T.);
#567=ORIENTED_EDGE('',*,*,#395,.F.);
#568=ORIENTED_EDGE('',*,*,#431,.F.);
#569=ORIENTED_EDGE('',*,*,#432,.T.);
#570=ORIENTED_EDGE('',*,*,#431,.T.);
#571=ORIENTED_EDGE('',*,*,#394,.F.);
#572=ORIENTED_EDGE('',*,*,#433,.F.);
#573=ORIENTED_EDGE('',*,*,#434,.T.);
#574=ORIENTED_EDGE('',*,*,#433,.T.);
#575=ORIENTED_EDGE('',*,*,#393,.F.);
#576=ORIENTED_EDGE('',*,*,#435,.F.);
#577=ORIENTED_EDGE('',*,*,#436,.T.);
#578=ORIENTED_EDGE('',*,*,#435,.T.);
#579=ORIENTED_EDGE('',*,*,#392,.F.);
#580=ORIENTED_EDGE('',*,*,#437,.F.);
#581=ORIENTED_EDGE('',*,*,#438,.T.);
#582=ORIENTED_EDGE('',*,*,#437,.T.);
#583=ORIENTED_EDGE('',*,*,#391,.F.);
#584=ORIENTED_EDGE('',*,*,#424,.F.);
#585=ORIENTED_EDGE('',*,*,#358,.F.);
#586=ORIENTED_EDGE('',*,*,#439,.T.);
#587=ORIENTED_EDGE('',*,*,#366,.F.);
#588=ORIENTED_EDGE('',*,*,#388,.F.);
#589=ORIENTED_EDGE('',*,*,#365,.F.);
#590=ORIENTED_EDGE('',*,*,#440,.T.);
#591=ORIENTED_EDGE('',*,*,#382,.F.);
#592=ORIENTED_EDGE('',*,*,#386,.F.);
#593=ORIENTED_EDGE('',*,*,#357,.F.);
#594=ORIENTED_EDGE('',*,*,#389,.F.);
#595=ORIENTED_EDGE('',*,*,#371,.F.);
#596=ORIENTED_EDGE('',*,*,#390,.F.);
#597=ORIENTED_EDGE('',*,*,#380,.F.);
#598=ORIENTED_EDGE('',*,*,#440,.F.);
#599=ORIENTED_EDGE('',*,*,#364,.F.);
#600=ORIENTED_EDGE('',*,*,#439,.F.);
#601=ORIENTED_EDGE('',*,*,#438,.F.);
#602=ORIENTED_EDGE('',*,*,#423,.F.);
#603=ORIENTED_EDGE('',*,*,#426,.F.);
#604=ORIENTED_EDGE('',*,*,#428,.F.);
#605=ORIENTED_EDGE('',*,*,#430,.F.);
#606=ORIENTED_EDGE('',*,*,#432,.F.);
#607=ORIENTED_EDGE('',*,*,#434,.F.);
#608=ORIENTED_EDGE('',*,*,#436,.F.);
#609=ORIENTED_EDGE('',*,*,#422,.F.);
#610=ORIENTED_EDGE('',*,*,#420,.F.);
#611=ORIENTED_EDGE('',*,*,#418,.F.);
#612=ORIENTED_EDGE('',*,*,#416,.F.);
#613=ORIENTED_EDGE('',*,*,#414,.F.);
#614=ORIENTED_EDGE('',*,*,#412,.F.);
#615=ORIENTED_EDGE('',*,*,#410,.F.);
#616=ORIENTED_EDGE('',*,*,#408,.F.);
#617=(
BOUNDED_SURFACE()
B_SPLINE_SURFACE(2,2,((#954,#955,#956),(#957,#958,#959),(#960,#961,#962)),
 .UNSPECIFIED.,.F.,.F.,.F.)
B_SPLINE_SURFACE_WITH_KNOTS((3,3),(3,3),(0.,1.5707963267949),(0.,1.5707963267949),
 .UNSPECIFIED.)
GEOMETRIC_REPRESENTATION_ITEM()
RATIONAL_B_SPLINE_SURFACE(((1.,0.707106781186548,1.),(0.707106781186563,
0.500000000000011,0.707106781186563),(1.,0.707106781186548,1.)))
REPRESENTATION_ITEM('')
SURFACE()
);
#618=(
BOUNDED_SURFACE()
B_SPLINE_SURFACE(2,2,((#977,#978,#979),(#980,#981,#982),(#983,#984,#985)),
 .UNSPECIFIED.,.F.,.F.,.F.)
B_SPLINE_SURFACE_WITH_KNOTS((3,3),(3,3),(0.,1.57079632679491),(1.5707963267949,
3.14159265358979),.UNSPECIFIED.)
GEOMETRIC_REPRESENTATION_ITEM()
RATIONAL_B_SPLINE_SURFACE(((1.,0.707106781186548,1.),(0.707106781186538,
0.499999999999994,0.707106781186538),(1.,0.707106781186548,1.)))
REPRESENTATION_ITEM('')
SURFACE()
);
#619=(
BOUNDED_SURFACE()
B_SPLINE_SURFACE(2,2,((#1000,#1001,#1002),(#1003,#1004,#1005),(#1006,#1007,
#1008)),.UNSPECIFIED.,.F.,.F.,.F.)
B_SPLINE_SURFACE_WITH_KNOTS((3,3),(3,3),(0.,1.57079632679493),(-1.5707963267949,
0.),.UNSPECIFIED.)
GEOMETRIC_REPRESENTATION_ITEM()
RATIONAL_B_SPLINE_SURFACE(((1.,0.707106781186548,1.),(0.707106781186493,
0.499999999999961,0.707106781186493),(1.,0.707106781186548,1.)))
REPRESENTATION_ITEM('')
SURFACE()
);
#620=(
BOUNDED_SURFACE()
B_SPLINE_SURFACE(2,2,((#1026,#1027,#1028),(#1029,#1030,#1031),(#1032,#1033,
#1034)),.UNSPECIFIED.,.F.,.F.,.F.)
B_SPLINE_SURFACE_WITH_KNOTS((3,3),(3,3),(0.,1.5707963267949),(-3.14159265358979,
-1.5707963267949),.UNSPECIFIED.)
GEOMETRIC_REPRESENTATION_ITEM()
RATIONAL_B_SPLINE_SURFACE(((1.,0.707106781186548,1.),(0.707106781186544,
0.499999999999998,0.707106781186544),(1.,0.707106781186548,1.)))
REPRESENTATION_ITEM('')
SURFACE()
);
#621=ADVANCED_FACE('',(#167),#617,.F.);
#622=ADVANCED_FACE('',(#168),#151,.T.);
#623=ADVANCED_FACE('',(#169),#618,.F.);
#624=ADVANCED_FACE('',(#170),#152,.T.);
#625=ADVANCED_FACE('',(#171),#619,.F.);
#626=ADVANCED_FACE('',(#172),#153,.T.);
#627=ADVANCED_FACE('',(#173),#154,.T.);
#628=ADVANCED_FACE('',(#174),#620,.F.);
#629=ADVANCED_FACE('',(#175),#155,.T.);
#630=ADVANCED_FACE('',(#176),#156,.T.);
#631=ADVANCED_FACE('',(#177),#157,.T.);
#632=ADVANCED_FACE('',(#178),#158,.T.);
#633=ADVANCED_FACE('',(#179),#25,.T.);
#634=ADVANCED_FACE('',(#180),#26,.T.);
#635=ADVANCED_FACE('',(#181,#15),#27,.T.);
#636=ADVANCED_FACE('',(#182),#28,.F.);
#637=ADVANCED_FACE('',(#183),#29,.F.);
#638=ADVANCED_FACE('',(#184),#30,.F.);
#639=ADVANCED_FACE('',(#185),#31,.F.);
#640=ADVANCED_FACE('',(#186),#32,.F.);
#641=ADVANCED_FACE('',(#187),#33,.F.);
#642=ADVANCED_FACE('',(#188),#34,.F.);
#643=ADVANCED_FACE('',(#189),#35,.F.);
#644=ADVANCED_FACE('',(#190),#159,.F.);
#645=ADVANCED_FACE('',(#191),#160,.F.);
#646=ADVANCED_FACE('',(#192),#161,.F.);
#647=ADVANCED_FACE('',(#193),#162,.F.);
#648=ADVANCED_FACE('',(#194),#163,.F.);
#649=ADVANCED_FACE('',(#195),#164,.F.);
#650=ADVANCED_FACE('',(#196),#165,.F.);
#651=ADVANCED_FACE('',(#197),#166,.F.);
#652=ADVANCED_FACE('',(#198),#36,.T.);
#653=ADVANCED_FACE('',(#199),#37,.T.);
#654=ADVANCED_FACE('',(#200),#38,.T.);
#655=ADVANCED_FACE('',(#201),#39,.T.);
#656=ADVANCED_FACE('',(#202),#40,.T.);
#657=ADVANCED_FACE('',(#203),#41,.T.);
#658=ADVANCED_FACE('',(#204),#42,.T.);
#659=ADVANCED_FACE('',(#205),#43,.T.);
#660=ADVANCED_FACE('',(#206),#44,.T.);
#661=ADVANCED_FACE('',(#207),#45,.T.);
#662=ADVANCED_FACE('',(#208,#16,#17,#18,#19,#20,#21,#22,#23,#24),#46,.F.);
#663=CLOSED_SHELL('',(#621,#622,#623,#624,#625,#626,#627,#628,#629,#630,
#631,#632,#633,#634,#635,#636,#637,#638,#639,#640,#641,#642,#643,#644,#645,
#646,#647,#648,#649,#650,#651,#652,#653,#654,#655,#656,#657,#658,#659,#660,
#661,#662));
#664=DERIVED_UNIT_ELEMENT(#666,1.);
#665=DERIVED_UNIT_ELEMENT(#1177,-3.);
#666=(
MASS_UNIT()
NAMED_UNIT(*)
SI_UNIT(.KILO.,.GRAM.)
);
#667=DERIVED_UNIT((#664,#665));
#668=MEASURE_REPRESENTATION_ITEM('density measure',
POSITIVE_RATIO_MEASURE(7850.),#667);
#669=PROPERTY_DEFINITION_REPRESENTATION(#674,#671);
#670=PROPERTY_DEFINITION_REPRESENTATION(#675,#672);
#671=REPRESENTATION('material name',(#673),#1174);
#672=REPRESENTATION('density',(#668),#1174);
#673=DESCRIPTIVE_REPRESENTATION_ITEM('Steel','Steel');
#674=PROPERTY_DEFINITION('material property','material name',#1184);
#675=PROPERTY_DEFINITION('material property','density of part',#1184);
#676=AXIS2_PLACEMENT_3D('',#953,#751,#752);
#677=AXIS2_PLACEMENT_3D('',#965,#753,#754);
#678=AXIS2_PLACEMENT_3D('',#967,#755,#756);
#679=AXIS2_PLACEMENT_3D('',#969,#757,#758);
#680=AXIS2_PLACEMENT_3D('',#970,#759,#760);
#681=AXIS2_PLACEMENT_3D('',#971,#761,#762);
#682=AXIS2_PLACEMENT_3D('',#974,#763,#764);
#683=AXIS2_PLACEMENT_3D('',#988,#767,#768);
#684=AXIS2_PLACEMENT_3D('',#990,#769,#770);
#685=AXIS2_PLACEMENT_3D('',#992,#771,#772);
#686=AXIS2_PLACEMENT_3D('',#993,#773,#774);
#687=AXIS2_PLACEMENT_3D('',#994,#775,#776);
#688=AXIS2_PLACEMENT_3D('',#997,#777,#778);
#689=AXIS2_PLACEMENT_3D('',#1011,#781,#782);
#690=AXIS2_PLACEMENT_3D('',#1013,#783,#784);
#691=AXIS2_PLACEMENT_3D('',#1015,#785,#786);
#692=AXIS2_PLACEMENT_3D('',#1016,#787,#788);
#693=AXIS2_PLACEMENT_3D('',#1017,#789,#790);
#694=AXIS2_PLACEMENT_3D('',#1020,#791,#792);
#695=AXIS2_PLACEMENT_3D('',#1023,#795,#796);
#696=AXIS2_PLACEMENT_3D('',#1037,#799,#800);
#697=AXIS2_PLACEMENT_3D('',#1039,#801,#802);
#698=AXIS2_PLACEMENT_3D('',#1041,#803,#804);
#699=AXIS2_PLACEMENT_3D('',#1042,#805,#806);
#700=AXIS2_PLACEMENT_3D('',#1043,#807,#808);
#701=AXIS2_PLACEMENT_3D('',#1046,#809,#810);
#702=AXIS2_PLACEMENT_3D('',#1049,#813,#814);
#703=AXIS2_PLACEMENT_3D('',#1052,#817,#818);
#704=AXIS2_PLACEMENT_3D('',#1055,#821,#822);
#705=AXIS2_PLACEMENT_3D('',#1058,#825,#826);
#706=AXIS2_PLACEMENT_3D('',#1060,#828,#829);
#707=AXIS2_PLACEMENT_3D('',#1062,#831,#832);
#708=AXIS2_PLACEMENT_3D('',#1079,#841,#842);
#709=AXIS2_PLACEMENT_3D('',#1081,#843,#844);
#710=AXIS2_PLACEMENT_3D('',#1082,#845,#846);
#711=AXIS2_PLACEMENT_3D('',#1084,#847,#848);
#712=AXIS2_PLACEMENT_3D('',#1085,#849,#850);
#713=AXIS2_PLACEMENT_3D('',#1087,#851,#852);
#714=AXIS2_PLACEMENT_3D('',#1088,#853,#854);
#715=AXIS2_PLACEMENT_3D('',#1090,#855,#856);
#716=AXIS2_PLACEMENT_3D('',#1091,#857,#858);
#717=AXIS2_PLACEMENT_3D('',#1093,#859,#860);
#718=AXIS2_PLACEMENT_3D('',#1094,#861,#862);
#719=AXIS2_PLACEMENT_3D('',#1096,#863,#864);
#720=AXIS2_PLACEMENT_3D('',#1097,#865,#866);
#721=AXIS2_PLACEMENT_3D('',#1099,#867,#868);
#722=AXIS2_PLACEMENT_3D('',#1100,#869,#870);
#723=AXIS2_PLACEMENT_3D('',#1102,#871,#872);
#724=AXIS2_PLACEMENT_3D('',#1103,#873,#874);
#725=AXIS2_PLACEMENT_3D('',#1106,#876,#877);
#726=AXIS2_PLACEMENT_3D('',#1107,#878,#879);
#727=AXIS2_PLACEMENT_3D('',#1110,#881,#882);
#728=AXIS2_PLACEMENT_3D('',#1111,#883,#884);
#729=AXIS2_PLACEMENT_3D('',#1114,#886,#887);
#730=AXIS2_PLACEMENT_3D('',#1115,#888,#889);
#731=AXIS2_PLACEMENT_3D('',#1118,#891,#892);
#732=AXIS2_PLACEMENT_3D('',#1119,#893,#894);
#733=AXIS2_PLACEMENT_3D('',#1122,#896,#897);
#734=AXIS2_PLACEMENT_3D('',#1123,#898,#899);
#735=AXIS2_PLACEMENT_3D('',#1126,#901,#902);
#736=AXIS2_PLACEMENT_3D('',#1127,#903,#904);
#737=AXIS2_PLACEMENT_3D('',#1130,#906,#907);
#738=AXIS2_PLACEMENT_3D('',#1131,#908,#909);
#739=AXIS2_PLACEMENT_3D('',#1134,#911,#912);
#740=AXIS2_PLACEMENT_3D('',#1135,#913,#914);
#741=AXIS2_PLACEMENT_3D('',#1141,#918,#919);
#742=AXIS2_PLACEMENT_3D('',#1145,#922,#923);
#743=AXIS2_PLACEMENT_3D('',#1149,#926,#927);
#744=AXIS2_PLACEMENT_3D('',#1153,#930,#931);
#745=AXIS2_PLACEMENT_3D('',#1157,#934,#935);
#746=AXIS2_PLACEMENT_3D('',#1161,#938,#939);
#747=AXIS2_PLACEMENT_3D('',#1165,#942,#943);
#748=AXIS2_PLACEMENT_3D('',#1167,#945,#946);
#749=AXIS2_PLACEMENT_3D('',#1169,#948,#949);
#750=AXIS2_PLACEMENT_3D('',#1171,#951,#952);
#751=DIRECTION('axis',(0.,0.,1.));
#752=DIRECTION('refdir',(1.,0.,0.));
#753=DIRECTION('center_axis',(0.,-1.,0.));
#754=DIRECTION('ref_axis',(1.,0.,0.));
#755=DIRECTION('center_axis',(0.,0.,1.));
#756=DIRECTION('ref_axis',(0.,1.,0.));
#757=DIRECTION('center_axis',(-1.,0.,0.));
#758=DIRECTION('ref_axis',(0.,0.,1.));
#759=DIRECTION('center_axis',(0.,0.,-1.));
#760=DIRECTION('ref_axis',(0.707106781186537,0.707106781186558,0.));
#761=DIRECTION('center_axis',(0.,0.,1.));
#762=DIRECTION('ref_axis',(0.707106781186542,0.707106781186553,0.));
#763=DIRECTION('center_axis',(0.,0.,1.));
#764=DIRECTION('ref_axis',(0.707106781186542,0.707106781186553,0.));
#765=DIRECTION('',(0.,0.,1.));
#766=DIRECTION('',(0.,0.,-1.));
#767=DIRECTION('center_axis',(1.,0.,0.));
#768=DIRECTION('ref_axis',(0.,1.,0.));
#769=DIRECTION('center_axis',(0.,0.,1.));
#770=DIRECTION('ref_axis',(-1.,0.,0.));
#771=DIRECTION('center_axis',(0.,-1.,0.));
#772=DIRECTION('ref_axis',(0.,0.,1.));
#773=DIRECTION('center_axis',(0.,0.,-1.));
#774=DIRECTION('ref_axis',(-0.70710678118654,0.707106781186555,0.));
#775=DIRECTION('center_axis',(0.,0.,1.));
#776=DIRECTION('ref_axis',(-0.707106781186545,0.70710678118655,0.));
#777=DIRECTION('center_axis',(0.,0.,1.));
#778=DIRECTION('ref_axis',(-0.707106781186545,0.70710678118655,0.));
#779=DIRECTION('',(0.,0.,1.));
#780=DIRECTION('',(0.,0.,-1.));
#781=DIRECTION('center_axis',(-1.,0.,0.));
#782=DIRECTION('ref_axis',(0.,-1.,0.));
#783=DIRECTION('center_axis',(0.,0.,1.));
#784=DIRECTION('ref_axis',(1.,0.,0.));
#785=DIRECTION('center_axis',(0.,1.,0.));
#786=DIRECTION('ref_axis',(0.,0.,1.));
#787=DIRECTION('center_axis',(0.,0.,-1.));
#788=DIRECTION('ref_axis',(0.70710678118654,-0.707106781186555,0.));
#789=DIRECTION('center_axis',(0.,0.,1.));
#790=DIRECTION('ref_axis',(0.70710678118654,-0.707106781186555,0.));
#791=DIRECTION('center_axis',(0.,0.,1.));
#792=DIRECTION('ref_axis',(0.70710678118654,-0.707106781186555,0.));
#793=DIRECTION('',(0.,0.,1.));
#794=DIRECTION('',(0.,0.,-1.));
#795=DIRECTION('center_axis',(0.,1.,0.));
#796=DIRECTION('ref_axis',(0.707106781186561,0.,0.707106781186534));
#797=DIRECTION('',(0.,-1.,0.));
#798=DIRECTION('',(0.,1.,0.));
#799=DIRECTION('center_axis',(0.,1.,0.));
#800=DIRECTION('ref_axis',(-1.,0.,0.));
#801=DIRECTION('center_axis',(0.,0.,1.));
#802=DIRECTION('ref_axis',(0.,-1.,0.));
#803=DIRECTION('center_axis',(1.,0.,0.));
#804=DIRECTION('ref_axis',(0.,0.,1.));
#805=DIRECTION('center_axis',(0.,0.,-1.));
#806=DIRECTION('ref_axis',(-0.707106781186547,-0.707106781186547,0.));
#807=DIRECTION('center_axis',(0.,0.,1.));
#808=DIRECTION('ref_axis',(-0.707106781186547,-0.707106781186548,0.));
#809=DIRECTION('center_axis',(0.,0.,1.));
#810=DIRECTION('ref_axis',(-0.707106781186547,-0.707106781186548,0.));
#811=DIRECTION('',(0.,0.,1.));
#812=DIRECTION('',(0.,0.,-1.));
#813=DIRECTION('center_axis',(1.,0.,0.));
#814=DIRECTION('ref_axis',(0.,-0.707106781186547,0.707106781186547));
#815=DIRECTION('',(-1.,0.,0.));
#816=DIRECTION('',(1.,0.,0.));
#817=DIRECTION('center_axis',(0.,-1.,0.));
#818=DIRECTION('ref_axis',(-0.707106781186547,0.,0.707106781186547));
#819=DIRECTION('',(0.,1.,0.));
#820=DIRECTION('',(0.,-1.,0.));
#821=DIRECTION('center_axis',(-1.,0.,0.));
#822=DIRECTION('ref_axis',(0.,0.70710678118655,0.707106781186545));
#823=DIRECTION('',(1.,0.,0.));
#824=DIRECTION('',(-1.,0.,0.));
#825=DIRECTION('center_axis',(1.,0.,0.));
#826=DIRECTION('ref_axis',(0.,1.,0.));
#827=DIRECTION('',(0.,1.,0.));
#828=DIRECTION('center_axis',(0.,-1.,0.));
#829=DIRECTION('ref_axis',(1.,0.,0.));
#830=DIRECTION('',(1.,0.,0.));
#831=DIRECTION('center_axis',(0.,0.,1.));
#832=DIRECTION('ref_axis',(1.,0.,0.));
#833=DIRECTION('',(0.,-1.,0.));
#834=DIRECTION('',(-1.,0.,0.));
#835=DIRECTION('',(0.,-1.,0.));
#836=DIRECTION('',(-1.,0.,0.));
#837=DIRECTION('',(0.,1.,0.));
#838=DIRECTION('',(-1.,0.,0.));
#839=DIRECTION('',(0.,1.,0.));
#840=DIRECTION('',(1.,0.,0.));
#841=DIRECTION('center_axis',(0.,0.,1.));
#842=DIRECTION('ref_axis',(1.,0.,0.));
#843=DIRECTION('center_axis',(0.,0.,1.));
#844=DIRECTION('ref_axis',(1.,0.,0.));
#845=DIRECTION('center_axis',(0.,0.,1.));
#846=DIRECTION('ref_axis',(1.,0.,0.));
#847=DIRECTION('center_axis',(0.,0.,1.));
#848=DIRECTION('ref_axis',(1.,0.,0.));
#849=DIRECTION('center_axis',(0.,0.,1.));
#850=DIRECTION('ref_axis',(1.,0.,0.));
#851=DIRECTION('center_axis',(0.,0.,1.));
#852=DIRECTION('ref_axis',(1.,0.,0.));
#853=DIRECTION('center_axis',(0.,0.,1.));
#854=DIRECTION('ref_axis',(1.,0.,0.));
#855=DIRECTION('center_axis',(0.,0.,1.));
#856=DIRECTION('ref_axis',(1.,0.,0.));
#857=DIRECTION('center_axis',(0.,0.,1.));
#858=DIRECTION('ref_axis',(1.,0.,0.));
#859=DIRECTION('center_axis',(0.,0.,1.));
#860=DIRECTION('ref_axis',(1.,0.,0.));
#861=DIRECTION('center_axis',(0.,0.,1.));
#862=DIRECTION('ref_axis',(1.,0.,0.));
#863=DIRECTION('center_axis',(0.,0.,1.));
#864=DIRECTION('ref_axis',(1.,0.,0.));
#865=DIRECTION('center_axis',(0.,0.,1.));
#866=DIRECTION('ref_axis',(1.,0.,0.));
#867=DIRECTION('center_axis',(0.,0.,1.));
#868=DIRECTION('ref_axis',(1.,0.,0.));
#869=DIRECTION('center_axis',(0.,0.,1.));
#870=DIRECTION('ref_axis',(1.,0.,0.));
#871=DIRECTION('center_axis',(0.,0.,1.));
#872=DIRECTION('ref_axis',(1.,0.,0.));
#873=DIRECTION('center_axis',(0.,0.,1.));
#874=DIRECTION('ref_axis',(1.,0.,0.));
#875=DIRECTION('',(0.,0.,-1.));
#876=DIRECTION('center_axis',(0.,0.,-1.));
#877=DIRECTION('ref_axis',(1.,0.,0.));
#878=DIRECTION('center_axis',(0.,0.,1.));
#879=DIRECTION('ref_axis',(1.,0.,0.));
#880=DIRECTION('',(0.,0.,-1.));
#881=DIRECTION('center_axis',(0.,0.,-1.));
#882=DIRECTION('ref_axis',(1.,0.,0.));
#883=DIRECTION('center_axis',(0.,0.,1.));
#884=DIRECTION('ref_axis',(1.,0.,0.));
#885=DIRECTION('',(0.,0.,-1.));
#886=DIRECTION('center_axis',(0.,0.,-1.));
#887=DIRECTION('ref_axis',(1.,0.,0.));
#888=DIRECTION('center_axis',(0.,0.,1.));
#889=DIRECTION('ref_axis',(1.,0.,0.));
#890=DIRECTION('',(0.,0.,-1.));
#891=DIRECTION('center_axis',(0.,0.,-1.));
#892=DIRECTION('ref_axis',(1.,0.,0.));
#893=DIRECTION('center_axis',(0.,0.,1.));
#894=DIRECTION('ref_axis',(1.,0.,0.));
#895=DIRECTION('',(0.,0.,-1.));
#896=DIRECTION('center_axis',(0.,0.,-1.));
#897=DIRECTION('ref_axis',(1.,0.,0.));
#898=DIRECTION('center_axis',(0.,0.,1.));
#899=DIRECTION('ref_axis',(1.,0.,0.));
#900=DIRECTION('',(0.,0.,-1.));
#901=DIRECTION('center_axis',(0.,0.,-1.));
#902=DIRECTION('ref_axis',(1.,0.,0.));
#903=DIRECTION('center_axis',(0.,0.,1.));
#904=DIRECTION('ref_axis',(1.,0.,0.));
#905=DIRECTION('',(0.,0.,-1.));
#906=DIRECTION('center_axis',(0.,0.,-1.));
#907=DIRECTION('ref_axis',(1.,0.,0.));
#908=DIRECTION('center_axis',(0.,0.,1.));
#909=DIRECTION('ref_axis',(1.,0.,0.));
#910=DIRECTION('',(0.,0.,-1.));
#911=DIRECTION('center_axis',(0.,0.,-1.));
#912=DIRECTION('ref_axis',(1.,0.,0.));
#913=DIRECTION('center_axis',(0.,-1.,0.));
#914=DIRECTION('ref_axis',(1.,0.,0.));
#915=DIRECTION('',(1.,0.,0.));
#916=DIRECTION('',(0.,0.,1.));
#917=DIRECTION('',(0.,0.,1.));
#918=DIRECTION('center_axis',(1.,0.,0.));
#919=DIRECTION('ref_axis',(0.,1.,0.));
#920=DIRECTION('',(0.,1.,0.));
#921=DIRECTION('',(0.,0.,1.));
#922=DIRECTION('center_axis',(0.,1.,0.));
#923=DIRECTION('ref_axis',(-1.,0.,0.));
#924=DIRECTION('',(-1.,0.,0.));
#925=DIRECTION('',(0.,0.,1.));
#926=DIRECTION('center_axis',(1.,0.,0.));
#927=DIRECTION('ref_axis',(0.,1.,0.));
#928=DIRECTION('',(0.,1.,0.));
#929=DIRECTION('',(0.,0.,1.));
#930=DIRECTION('center_axis',(0.,1.,0.));
#931=DIRECTION('ref_axis',(-1.,0.,0.));
#932=DIRECTION('',(-1.,0.,0.));
#933=DIRECTION('',(0.,0.,1.));
#934=DIRECTION('center_axis',(-1.,0.,0.));
#935=DIRECTION('ref_axis',(0.,-1.,0.));
#936=DIRECTION('',(0.,-1.,0.));
#937=DIRECTION('',(0.,0.,1.));
#938=DIRECTION('center_axis',(0.,1.,0.));
#939=DIRECTION('ref_axis',(-1.,0.,0.));
#940=DIRECTION('',(-1.,0.,0.));
#941=DIRECTION('',(0.,0.,1.));
#942=DIRECTION('center_axis',(-1.,0.,0.));
#943=DIRECTION('ref_axis',(0.,-1.,0.));
#944=DIRECTION('',(0.,-1.,0.));
#945=DIRECTION('center_axis',(0.,1.,0.));
#946=DIRECTION('ref_axis',(-1.,0.,0.));
#947=DIRECTION('',(-1.,0.,0.));
#948=DIRECTION('center_axis',(-1.,0.,0.));
#949=DIRECTION('ref_axis',(0.,-1.,0.));
#950=DIRECTION('',(0.,-1.,0.));
#951=DIRECTION('center_axis',(0.,0.,1.));
#952=DIRECTION('ref_axis',(1.,0.,0.));
#953=CARTESIAN_POINT('',(0.,0.,0.));
#954=CARTESIAN_POINT('Ctrl Pts',(242.199350074506,87.3994600745058,21.8));
#955=CARTESIAN_POINT('Ctrl Pts',(242.199350074506,89.7994600745058,21.8));
#956=CARTESIAN_POINT('Ctrl Pts',(239.799350074506,89.7994600745058,21.8));
#957=CARTESIAN_POINT('Ctrl Pts',(242.199350074506,87.3994600745058,23.));
#958=CARTESIAN_POINT('Ctrl Pts',(242.199350074506,89.7994600745058,23.));
#959=CARTESIAN_POINT('Ctrl Pts',(239.799350074506,89.7994600745058,23.));
#960=CARTESIAN_POINT('Ctrl Pts',(240.999350074506,87.3994600745058,23.));
#961=CARTESIAN_POINT('Ctrl Pts',(240.999350074506,88.5994600745058,23.));
#962=CARTESIAN_POINT('Ctrl Pts',(239.799350074506,88.5994600745058,23.));
#963=CARTESIAN_POINT('',(242.199350074506,87.3994600745058,21.8));
#964=CARTESIAN_POINT('',(240.999350074506,87.3994600745058,23.));
#965=CARTESIAN_POINT('Origin',(240.999350074506,87.3994600745058,21.8));
#966=CARTESIAN_POINT('',(239.799350074506,89.7994600745058,21.8));
#967=CARTESIAN_POINT('Origin',(239.799350074506,87.3994600745058,21.8));
#968=CARTESIAN_POINT('',(239.799350074506,88.5994600745058,23.));
#969=CARTESIAN_POINT('Origin',(239.799350074506,88.5994600745058,21.8));
#970=CARTESIAN_POINT('Origin',(239.799350074506,87.3994600745058,23.));
#971=CARTESIAN_POINT('Origin',(239.799350074506,87.3994600745058,15.));
#972=CARTESIAN_POINT('',(242.199350074506,87.3994600745058,15.));
#973=CARTESIAN_POINT('',(239.799350074506,89.7994600745058,15.));
#974=CARTESIAN_POINT('Origin',(239.799350074506,87.3994600745058,15.));
#975=CARTESIAN_POINT('',(239.799350074506,89.7994600745058,15.));
#976=CARTESIAN_POINT('',(242.199350074506,87.3994600745058,15.));
#977=CARTESIAN_POINT('Ctrl Pts',(0.399999970197698,89.7994600745058,21.8));
#978=CARTESIAN_POINT('Ctrl Pts',(-2.00000002980232,89.7994600745058,21.8));
#979=CARTESIAN_POINT('Ctrl Pts',(-2.00000002980232,87.3994600745058,21.8));
#980=CARTESIAN_POINT('Ctrl Pts',(0.399999970197698,89.7994600745058,23.));
#981=CARTESIAN_POINT('Ctrl Pts',(-2.00000002980232,89.7994600745058,23.));
#982=CARTESIAN_POINT('Ctrl Pts',(-2.00000002980232,87.3994600745058,23.));
#983=CARTESIAN_POINT('Ctrl Pts',(0.399999970197698,88.5994600745058,23.));
#984=CARTESIAN_POINT('Ctrl Pts',(-0.800000029802312,88.5994600745058,23.));
#985=CARTESIAN_POINT('Ctrl Pts',(-0.800000029802312,87.3994600745058,23.));
#986=CARTESIAN_POINT('',(0.39999997019768,89.7994600745058,21.8));
#987=CARTESIAN_POINT('',(0.399999970197698,88.5994600745058,23.));
#988=CARTESIAN_POINT('Origin',(0.399999970197698,88.5994600745058,21.8));
#989=CARTESIAN_POINT('',(-2.00000002980232,87.3994600745058,21.8));
#990=CARTESIAN_POINT('Origin',(0.39999997019768,87.3994600745058,21.8));
#991=CARTESIAN_POINT('',(-0.800000029802321,87.3994600745058,23.));
#992=CARTESIAN_POINT('Origin',(-0.800000029802321,87.3994600745058,21.8));
#993=CARTESIAN_POINT('Origin',(0.399999970197698,87.3994600745058,23.));
#994=CARTESIAN_POINT('Origin',(0.39999997019768,87.3994600745058,15.));
#995=CARTESIAN_POINT('',(0.399999970197662,89.7994600745058,15.));
#996=CARTESIAN_POINT('',(-2.00000002980232,87.3994600745058,15.));
#997=CARTESIAN_POINT('Origin',(0.39999997019768,87.3994600745058,15.));
#998=CARTESIAN_POINT('',(-2.00000002980232,87.3994600745058,15.));
#999=CARTESIAN_POINT('',(0.39999997019768,89.7994600745058,15.));
#1000=CARTESIAN_POINT('Ctrl Pts',(239.799350074506,-2.00000002980234,21.8));
#1001=CARTESIAN_POINT('Ctrl Pts',(242.199350074506,-2.00000002980234,21.8));
#1002=CARTESIAN_POINT('Ctrl Pts',(242.199350074506,0.39999997019768,21.8));
#1003=CARTESIAN_POINT('Ctrl Pts',(239.799350074506,-2.00000002980234,23.));
#1004=CARTESIAN_POINT('Ctrl Pts',(242.199350074506,-2.00000002980234,23.));
#1005=CARTESIAN_POINT('Ctrl Pts',(242.199350074506,0.39999997019768,23.));
#1006=CARTESIAN_POINT('Ctrl Pts',(239.799350074506,-0.800000029802295,23.));
#1007=CARTESIAN_POINT('Ctrl Pts',(240.999350074506,-0.800000029802294,23.));
#1008=CARTESIAN_POINT('Ctrl Pts',(240.999350074506,0.39999997019768,23.));
#1009=CARTESIAN_POINT('',(239.799350074506,-2.00000002980232,21.8));
#1010=CARTESIAN_POINT('',(239.799350074506,-0.800000029802321,23.));
#1011=CARTESIAN_POINT('Origin',(239.799350074506,-0.800000029802321,21.8));
#1012=CARTESIAN_POINT('',(242.199350074506,0.39999997019768,21.8));
#1013=CARTESIAN_POINT('Origin',(239.799350074506,0.399999970197678,21.8));
#1014=CARTESIAN_POINT('',(240.999350074506,0.39999997019768,23.));
#1015=CARTESIAN_POINT('Origin',(240.999350074506,0.39999997019768,21.8));
#1016=CARTESIAN_POINT('Origin',(239.799350074506,0.39999997019768,23.));
#1017=CARTESIAN_POINT('Origin',(239.799350074506,0.399999970197678,15.));
#1018=CARTESIAN_POINT('',(239.799350074506,-2.00000002980232,15.));
#1019=CARTESIAN_POINT('',(242.199350074506,0.399999970197678,15.));
#1020=CARTESIAN_POINT('Origin',(239.799350074506,0.399999970197678,15.));
#1021=CARTESIAN_POINT('',(242.199350074506,0.399999970197678,15.));
#1022=CARTESIAN_POINT('',(239.799350074506,-2.00000002980232,15.));
#1023=CARTESIAN_POINT('Origin',(240.999350074506,20.9498649962747,21.8));
#1024=CARTESIAN_POINT('',(240.999350074506,20.9498649962747,23.));
#1025=CARTESIAN_POINT('',(242.199350074506,20.9498649962747,21.8));
#1026=CARTESIAN_POINT('Ctrl Pts',(-2.00000002980232,0.39999997019768,21.8));
#1027=CARTESIAN_POINT('Ctrl Pts',(-2.00000002980232,-2.00000002980232,21.8));
#1028=CARTESIAN_POINT('Ctrl Pts',(0.39999997019768,-2.00000002980232,21.8));
#1029=CARTESIAN_POINT('Ctrl Pts',(-2.00000002980232,0.39999997019768,23.));
#1030=CARTESIAN_POINT('Ctrl Pts',(-2.00000002980232,-2.00000002980232,23.));
#1031=CARTESIAN_POINT('Ctrl Pts',(0.39999997019768,-2.00000002980232,23.));
#1032=CARTESIAN_POINT('Ctrl Pts',(-0.800000029802321,0.39999997019768,23.));
#1033=CARTESIAN_POINT('Ctrl Pts',(-0.800000029802321,-0.800000029802321,
23.));
#1034=CARTESIAN_POINT('Ctrl Pts',(0.39999997019768,-0.800000029802321,23.));
#1035=CARTESIAN_POINT('',(-2.00000002980232,0.39999997019768,21.8));
#1036=CARTESIAN_POINT('',(-0.800000029802321,0.39999997019768,23.));
#1037=CARTESIAN_POINT('Origin',(-0.800000029802321,0.39999997019768,21.8));
#1038=CARTESIAN_POINT('',(0.39999997019768,-2.00000002980232,21.8));
#1039=CARTESIAN_POINT('Origin',(0.399999970197678,0.39999997019768,21.8));
#1040=CARTESIAN_POINT('',(0.39999997019768,-0.800000029802321,23.));
#1041=CARTESIAN_POINT('Origin',(0.39999997019768,-0.800000029802321,21.8));
#1042=CARTESIAN_POINT('Origin',(0.39999997019768,0.39999997019768,23.));
#1043=CARTESIAN_POINT('Origin',(0.399999970197678,0.39999997019768,15.));
#1044=CARTESIAN_POINT('',(-2.00000002980232,0.39999997019768,15.));
#1045=CARTESIAN_POINT('',(0.399999970197678,-2.00000002980232,15.));
#1046=CARTESIAN_POINT('Origin',(0.399999970197678,0.39999997019768,15.));
#1047=CARTESIAN_POINT('',(0.399999970197678,-2.00000002980232,15.));
#1048=CARTESIAN_POINT('',(-2.00000002980232,0.39999997019768,15.));
#1049=CARTESIAN_POINT('Origin',(59.0498374962747,-0.800000029802321,21.8));
#1050=CARTESIAN_POINT('',(59.0498374962747,-0.800000029802321,23.));
#1051=CARTESIAN_POINT('',(59.0498374962747,-2.00000002980232,21.8));
#1052=CARTESIAN_POINT('Origin',(-0.800000029802321,66.8495950484288,21.8));
#1053=CARTESIAN_POINT('',(-0.800000029802321,66.8495950484288,23.));
#1054=CARTESIAN_POINT('',(-2.00000002980232,66.8495950484288,21.8));
#1055=CARTESIAN_POINT('Origin',(181.149512548429,88.5994600745058,21.8));
#1056=CARTESIAN_POINT('',(181.149512548429,88.5994600745058,23.));
#1057=CARTESIAN_POINT('',(181.149512548429,89.7994600745058,21.8));
#1058=CARTESIAN_POINT('Origin',(242.199350074506,-2.00000002980232,15.));
#1059=CARTESIAN_POINT('',(242.199350074506,-2.00000002980232,15.));
#1060=CARTESIAN_POINT('Origin',(-2.00000002980232,-2.00000002980232,15.));
#1061=CARTESIAN_POINT('',(-2.00000002980232,-2.00000002980232,15.));
#1062=CARTESIAN_POINT('Origin',(120.099675022352,43.8997300223517,23.));
#1063=CARTESIAN_POINT('',(235.199350074506,82.7994600745058,23.));
#1064=CARTESIAN_POINT('',(235.199350074506,24.0499600745058,23.));
#1065=CARTESIAN_POINT('',(235.199350074506,5.00000007450581,23.));
#1066=CARTESIAN_POINT('',(216.149350074506,24.0499600745058,23.));
#1067=CARTESIAN_POINT('',(216.149350074506,24.0499600745058,23.));
#1068=CARTESIAN_POINT('',(216.149350074506,5.00000007450581,23.));
#1069=CARTESIAN_POINT('',(216.149350074506,24.0499600745058,23.));
#1070=CARTESIAN_POINT('',(24.0500500745058,5.00000007450581,23.));
#1071=CARTESIAN_POINT('',(235.199350074506,5.00000007450581,23.));
#1072=CARTESIAN_POINT('',(24.0500500745058,24.0499600745058,23.));
#1073=CARTESIAN_POINT('',(24.0500500745058,24.0499600745058,23.));
#1074=CARTESIAN_POINT('',(5.00000007450581,24.0499600745058,23.));
#1075=CARTESIAN_POINT('',(24.0500500745058,24.0499600745058,23.));
#1076=CARTESIAN_POINT('',(5.00000007450581,82.7994600745058,23.));
#1077=CARTESIAN_POINT('',(5.00000007450581,82.7994600745058,23.));
#1078=CARTESIAN_POINT('',(5.00000007450581,82.7994600745058,23.));
#1079=CARTESIAN_POINT('Origin',(237.699350074506,85.2994600745058,20.));
#1080=CARTESIAN_POINT('',(236.799350074506,85.2994600745058,20.));
#1081=CARTESIAN_POINT('Origin',(237.699350074506,85.2994600745058,20.));
#1082=CARTESIAN_POINT('Origin',(237.699350074506,2.5000000372529,20.));
#1083=CARTESIAN_POINT('',(236.799350074506,2.5000000372529,20.));
#1084=CARTESIAN_POINT('Origin',(237.699350074506,2.5000000372529,20.));
#1085=CARTESIAN_POINT('Origin',(159.299350074506,2.5000000372529,20.));
#1086=CARTESIAN_POINT('',(158.399350074506,2.5000000372529,20.));
#1087=CARTESIAN_POINT('Origin',(159.299350074506,2.5000000372529,20.));
#1088=CARTESIAN_POINT('Origin',(80.9000000372529,2.5000000372529,20.));
#1089=CARTESIAN_POINT('',(80.0000000372529,2.5000000372529,20.));
#1090=CARTESIAN_POINT('Origin',(80.9000000372529,2.5000000372529,20.));
#1091=CARTESIAN_POINT('Origin',(159.299350074506,85.2994600745058,20.));
#1092=CARTESIAN_POINT('',(158.399350074506,85.2994600745058,20.));
#1093=CARTESIAN_POINT('Origin',(159.299350074506,85.2994600745058,20.));
#1094=CARTESIAN_POINT('Origin',(80.9000000372529,85.2994600745058,20.));
#1095=CARTESIAN_POINT('',(80.0000000372529,85.2994600745058,20.));
#1096=CARTESIAN_POINT('Origin',(80.9000000372529,85.2994600745058,20.));
#1097=CARTESIAN_POINT('Origin',(2.5000000372529,85.2994600745058,20.));
#1098=CARTESIAN_POINT('',(1.6000000372529,85.2994600745058,20.));
#1099=CARTESIAN_POINT('Origin',(2.5000000372529,85.2994600745058,20.));
#1100=CARTESIAN_POINT('Origin',(2.5000000372529,2.5000000372529,20.));
#1101=CARTESIAN_POINT('',(1.6000000372529,2.5000000372529,20.));
#1102=CARTESIAN_POINT('Origin',(2.5000000372529,2.5000000372529,20.));
#1103=CARTESIAN_POINT('Origin',(159.299350074506,2.5000000372529,15.));
#1104=CARTESIAN_POINT('',(158.399350074506,2.5000000372529,15.));
#1105=CARTESIAN_POINT('',(158.399350074506,2.5000000372529,15.));
#1106=CARTESIAN_POINT('Origin',(159.299350074506,2.5000000372529,15.));
#1107=CARTESIAN_POINT('Origin',(237.699350074506,85.2994600745058,15.));
#1108=CARTESIAN_POINT('',(236.799350074506,85.2994600745058,15.));
#1109=CARTESIAN_POINT('',(236.799350074506,85.2994600745058,15.));
#1110=CARTESIAN_POINT('Origin',(237.699350074506,85.2994600745058,15.));
#1111=CARTESIAN_POINT('Origin',(80.9000000372529,2.5000000372529,15.));
#1112=CARTESIAN_POINT('',(80.0000000372529,2.5000000372529,15.));
#1113=CARTESIAN_POINT('',(80.0000000372529,2.5000000372529,15.));
#1114=CARTESIAN_POINT('Origin',(80.9000000372529,2.5000000372529,15.));
#1115=CARTESIAN_POINT('Origin',(159.299350074506,85.2994600745058,15.));
#1116=CARTESIAN_POINT('',(158.399350074506,85.2994600745058,15.));
#1117=CARTESIAN_POINT('',(158.399350074506,85.2994600745058,15.));
#1118=CARTESIAN_POINT('Origin',(159.299350074506,85.2994600745058,15.));
#1119=CARTESIAN_POINT('Origin',(80.9000000372529,85.2994600745058,15.));
#1120=CARTESIAN_POINT('',(80.0000000372529,85.2994600745058,15.));
#1121=CARTESIAN_POINT('',(80.0000000372529,85.2994600745058,15.));
#1122=CARTESIAN_POINT('Origin',(80.9000000372529,85.2994600745058,15.));
#1123=CARTESIAN_POINT('Origin',(237.699350074506,2.5000000372529,15.));
#1124=CARTESIAN_POINT('',(236.799350074506,2.5000000372529,15.));
#1125=CARTESIAN_POINT('',(236.799350074506,2.5000000372529,15.));
#1126=CARTESIAN_POINT('Origin',(237.699350074506,2.5000000372529,15.));
#1127=CARTESIAN_POINT('Origin',(2.5000000372529,2.5000000372529,15.));
#1128=CARTESIAN_POINT('',(1.6000000372529,2.5000000372529,15.));
#1129=CARTESIAN_POINT('',(1.6000000372529,2.5000000372529,15.));
#1130=CARTESIAN_POINT('Origin',(2.5000000372529,2.5000000372529,15.));
#1131=CARTESIAN_POINT('Origin',(2.5000000372529,85.2994600745058,15.));
#1132=CARTESIAN_POINT('',(1.6000000372529,85.2994600745058,15.));
#1133=CARTESIAN_POINT('',(1.6000000372529,85.2994600745058,15.));
#1134=CARTESIAN_POINT('Origin',(2.5000000372529,85.2994600745058,15.));
#1135=CARTESIAN_POINT('Origin',(5.00000007450581,82.7994600745058,15.));
#1136=CARTESIAN_POINT('',(5.00000007450581,82.7994600745058,15.));
#1137=CARTESIAN_POINT('',(235.199350074506,82.7994600745058,15.));
#1138=CARTESIAN_POINT('',(5.00000007450581,82.7994600745058,15.));
#1139=CARTESIAN_POINT('',(235.199350074506,82.7994600745058,15.));
#1140=CARTESIAN_POINT('',(5.00000007450581,82.7994600745058,15.));
#1141=CARTESIAN_POINT('Origin',(5.00000007450581,24.0499600745058,15.));
#1142=CARTESIAN_POINT('',(5.00000007450581,24.0499600745058,15.));
#1143=CARTESIAN_POINT('',(5.00000007450581,82.7994600745058,15.));
#1144=CARTESIAN_POINT('',(5.00000007450581,24.0499600745058,15.));
#1145=CARTESIAN_POINT('Origin',(24.0500500745058,24.0499600745058,15.));
#1146=CARTESIAN_POINT('',(24.0500500745058,24.0499600745058,15.));
#1147=CARTESIAN_POINT('',(24.0500500745058,24.0499600745058,15.));
#1148=CARTESIAN_POINT('',(24.0500500745058,24.0499600745058,15.));
#1149=CARTESIAN_POINT('Origin',(24.0500500745058,5.00000007450581,15.));
#1150=CARTESIAN_POINT('',(24.0500500745058,5.00000007450581,15.));
#1151=CARTESIAN_POINT('',(24.0500500745058,24.0499600745058,15.));
#1152=CARTESIAN_POINT('',(24.0500500745058,5.00000007450581,15.));
#1153=CARTESIAN_POINT('Origin',(216.149350074506,5.00000007450581,15.));
#1154=CARTESIAN_POINT('',(216.149350074506,5.00000007450581,15.));
#1155=CARTESIAN_POINT('',(235.199350074506,5.00000007450581,15.));
#1156=CARTESIAN_POINT('',(216.149350074506,5.00000007450581,15.));
#1157=CARTESIAN_POINT('Origin',(216.149350074506,24.0499600745058,15.));
#1158=CARTESIAN_POINT('',(216.149350074506,24.0499600745058,15.));
#1159=CARTESIAN_POINT('',(216.149350074506,24.0499600745058,15.));
#1160=CARTESIAN_POINT('',(216.149350074506,24.0499600745058,15.));
#1161=CARTESIAN_POINT('Origin',(235.199350074506,24.0499600745058,15.));
#1162=CARTESIAN_POINT('',(235.199350074506,24.0499600745058,15.));
#1163=CARTESIAN_POINT('',(216.149350074506,24.0499600745058,15.));
#1164=CARTESIAN_POINT('',(235.199350074506,24.0499600745058,15.));
#1165=CARTESIAN_POINT('Origin',(235.199350074506,82.7994600745058,15.));
#1166=CARTESIAN_POINT('',(235.199350074506,5.00000007450581,15.));
#1167=CARTESIAN_POINT('Origin',(242.199350074506,89.7994600745058,15.));
#1168=CARTESIAN_POINT('',(242.199350074506,89.7994600745058,15.));
#1169=CARTESIAN_POINT('Origin',(-2.00000002980232,89.7994600745058,15.));
#1170=CARTESIAN_POINT('',(-2.00000002980232,89.7994600745058,15.));
#1171=CARTESIAN_POINT('Origin',(120.099675022352,43.8997300223517,15.));
#1172=UNCERTAINTY_MEASURE_WITH_UNIT(LENGTH_MEASURE(0.01),#1176,
'DISTANCE_ACCURACY_VALUE',
'Maximum model space distance between geometric entities at asserted c
onnectivities');
#1173=UNCERTAINTY_MEASURE_WITH_UNIT(LENGTH_MEASURE(0.01),#1176,
'DISTANCE_ACCURACY_VALUE',
'Maximum model space distance between geometric entities at asserted c
onnectivities');
#1174=(
GEOMETRIC_REPRESENTATION_CONTEXT(3)
GLOBAL_UNCERTAINTY_ASSIGNED_CONTEXT((#1172))
GLOBAL_UNIT_ASSIGNED_CONTEXT((#1176,#1178,#1179))
REPRESENTATION_CONTEXT('','3D')
);
#1175=(
GEOMETRIC_REPRESENTATION_CONTEXT(3)
GLOBAL_UNCERTAINTY_ASSIGNED_CONTEXT((#1173))
GLOBAL_UNIT_ASSIGNED_CONTEXT((#1176,#1178,#1179))
REPRESENTATION_CONTEXT('','3D')
);
#1176=(
LENGTH_UNIT()
NAMED_UNIT(*)
SI_UNIT(.MILLI.,.METRE.)
);
#1177=(
LENGTH_UNIT()
NAMED_UNIT(*)
SI_UNIT($,.METRE.)
);
#1178=(
NAMED_UNIT(*)
PLANE_ANGLE_UNIT()
SI_UNIT($,.RADIAN.)
);
#1179=(
NAMED_UNIT(*)
SI_UNIT($,.STERADIAN.)
SOLID_ANGLE_UNIT()
);
#1180=SHAPE_DEFINITION_REPRESENTATION(#1181,#1182);
#1181=PRODUCT_DEFINITION_SHAPE('',$,#1184);
#1182=SHAPE_REPRESENTATION('',(#676),#1174);
#1183=PRODUCT_DEFINITION_CONTEXT('part definition',#1188,'design');
#1184=PRODUCT_DEFINITION('prototype','prototype',#1185,#1183);
#1185=PRODUCT_DEFINITION_FORMATION('',$,#1190);
#1186=PRODUCT_RELATED_PRODUCT_CATEGORY('prototype','prototype',(#1190));
#1187=APPLICATION_PROTOCOL_DEFINITION('international standard',
'automotive_design',2009,#1188);
#1188=APPLICATION_CONTEXT(
'Core Data for Automotive Mechanical Design Process');
#1189=PRODUCT_CONTEXT('part definition',#1188,'mechanical');
#1190=PRODUCT('prototype','prototype',$,(#1189));
#1191=PRESENTATION_STYLE_ASSIGNMENT((#1194));
#1192=PRESENTATION_STYLE_ASSIGNMENT((#1195));
#1193=PRESENTATION_STYLE_ASSIGNMENT((#1196));
#1194=SURFACE_STYLE_USAGE(.BOTH.,#1197);
#1195=SURFACE_STYLE_USAGE(.BOTH.,#1198);
#1196=SURFACE_STYLE_USAGE(.BOTH.,#1199);
#1197=SURFACE_SIDE_STYLE('',(#1200));
#1198=SURFACE_SIDE_STYLE('',(#1201));
#1199=SURFACE_SIDE_STYLE('',(#1202));
#1200=SURFACE_STYLE_FILL_AREA(#1203);
#1201=SURFACE_STYLE_FILL_AREA(#1204);
#1202=SURFACE_STYLE_FILL_AREA(#1205);
#1203=FILL_AREA_STYLE('Steel - Satin',(#1206));
#1204=FILL_AREA_STYLE('Paint - Enamel Glossy (White)',(#1207));
#1205=FILL_AREA_STYLE('Paint - Enamel Glossy (Red)',(#1208));
#1206=FILL_AREA_STYLE_COLOUR('Steel - Satin',#1209);
#1207=FILL_AREA_STYLE_COLOUR('Paint - Enamel Glossy (White)',#1210);
#1208=FILL_AREA_STYLE_COLOUR('Paint - Enamel Glossy (Red)',#1211);
#1209=COLOUR_RGB('Steel - Satin',0.627450980392157,0.627450980392157,0.627450980392157);
#1210=COLOUR_RGB('Paint - Enamel Glossy (White)',0.964705882352941,0.964705882352941,
0.952941176470588);
#1211=COLOUR_RGB('Paint - Enamel Glossy (Red)',0.768627450980392,0.207843137254902,
0.152941176470588);
ENDSEC;
END-ISO-10303-21;
